<svg width="375" height="633" viewBox="0 0 375 633" fill="none" xmlns="http://www.w3.org/2000/svg">
<path d="M417.448 577.266C461.406 540.354 493.59 492.071 514 432.416H392.657C364.483 493.664 329.544 527.412 287.109 533.694C244.674 539.976 206.737 523.87 172.042 484.609C137.348 445.347 120.576 388.844 120.576 315.434C120.576 242.023 137.836 185.487 172.042 146.225C206.249 106.964 244.883 90.8919 287.109 97.5747C329.335 104.257 364.483 138.006 392.657 199.621H514C485.756 119.561 444.053 63.9491 388.891 32.785C334.077 1.79914 276.869 -7.22264 217.267 5.7197C157.665 18.662 106.524 51.6416 63.8446 104.658C21.3978 157.608 0.116229 227.867 0 315.434C0 403.335 26.0354 478.182 78.106 539.976C130.177 601.769 193.045 632.777 266.711 633C323.163 633 373.514 614.555 417.448 577.266Z" fill="#252626"/>
</svg>
