<svg width="161" height="60" viewBox="0 0 161 60" fill="none" xmlns="http://www.w3.org/2000/svg">
<g clip-path="url(#clip0)">
<path d="M58.55 19.8794L53.4965 23.6573C61.3381 63.5411 -0.871505 63.6038 6.8376 23.6991L1.77719 19.9421C-5.38126 38.6782 10.0648 60.5927 30.174 59.9863C50.3041 60.5927 65.7712 38.6294 58.55 19.8794Z" fill="white"/>
<path d="M56.6183 15.5367L51.7879 19.1543C50.0629 15.6968 47.5354 12.7024 44.4165 10.4214C41.2976 8.14047 37.6781 6.63925 33.8604 6.04323V32.7184L30.1731 35.7087L26.4858 32.7184V6.04323C22.6577 6.64085 19.029 8.1486 15.9045 10.4398C12.7801 12.731 10.2512 15.7386 8.53045 19.21L3.70703 15.5995C14.3088 -5.17889 46.0026 -5.1998 56.6183 15.5367Z" fill="white"/>
<path d="M74.1148 3.48535H78.4782V5.91797H74.1148V18.3111H71.1524V5.91797H66.7891V3.48535H74.1148Z" fill="white"/>
<path d="M83.1066 3.48535V9.34734H88.1949V3.48535H91.1921V18.3111H88.1949V11.9054H83.1066V18.3111H80.1094V3.48535H83.1066Z" fill="white"/>
<path d="M105.203 3.48535V6.02253H97.1382V9.65403H104.108V12.1773H97.1382V15.8227H105.203V18.339H94.2246V3.48535H105.203Z" fill="white"/>
<path d="M77.4943 24.2287C78.6396 25.152 79.498 26.3827 79.9687 27.7765H76.86C76.163 26.2779 75.2429 25.4485 74.1486 25.2951C73.5961 25.2243 73.0348 25.2968 72.5185 25.5055C72.0022 25.7143 71.5482 26.0522 71.2001 26.487C70.2474 27.664 69.7766 29.1586 69.8828 30.6692C69.7859 32.1658 70.2563 33.644 71.2001 34.8095C71.5477 35.2448 72.0017 35.5832 72.5181 35.7919C73.0346 36.0007 73.5961 36.0729 74.1486 36.0014C75.2429 35.8411 76.1351 35.0117 76.86 33.5061H79.9687C79.447 35.22 78.3034 36.6769 76.7624 37.5906C75.429 38.3548 73.8614 38.6028 72.3572 38.2877C70.8084 37.9555 69.4207 37.1017 68.426 35.869C67.2717 34.3895 66.6901 32.5431 66.788 30.6692C66.7377 28.6481 67.455 26.6831 68.7954 25.1696C69.3817 24.4542 70.1201 23.8783 70.9568 23.4841C71.7936 23.0898 72.7077 22.887 73.6328 22.8904C75.0372 22.8686 76.4045 23.3424 77.4943 24.2287Z" fill="white"/>
<path d="M88.3748 23.2391C89.3568 23.1801 90.3256 23.4881 91.0932 24.1034C91.7445 24.655 92.2035 25.3996 92.4036 26.2293C92.6059 27.0747 92.6059 27.9559 92.4036 28.8013C92.2397 29.6317 91.8626 30.4052 91.3093 31.0458C90.7478 31.6741 89.9777 32.0777 89.1415 32.1819L93.5537 38.0439H89.9152L85.5518 32.2098H84.2484V38.0439H81.3418V23.2391H88.3748ZM84.2484 29.7354H88.2214C88.5351 29.7551 88.8457 29.665 89.1001 29.4806C89.3545 29.2961 89.5368 29.0289 89.6155 28.7247C89.8456 28.0729 89.8456 27.362 89.6155 26.7103C89.5368 26.4061 89.3545 26.1388 89.1001 25.9544C88.8457 25.7699 88.5351 25.6798 88.2214 25.6996H84.2484V29.7354Z" fill="white"/>
<path d="M105.656 23.2876V25.79H97.5843V29.4215H104.555V31.9447H97.5843V35.5902H105.649V38.1064H94.6777V23.2598L105.656 23.2876Z" fill="white"/>
<path d="M121.855 38.1205H118.662L117.324 34.6702H111.274L109.922 38.1205H106.736L112.445 23.4829H116.146L121.855 38.1205ZM116.362 32.2097L114.313 26.8705L112.222 32.2097H116.362Z" fill="white"/>
<path d="M127.171 23.2388H131.535V25.6993H127.171V38.0924H124.209V25.6993H119.846V23.2388H127.171Z" fill="white"/>
<path d="M133.166 38.0924V23.2388H136.087V38.0924H133.166Z" fill="white"/>
<path d="M140.143 23.2388L143.057 32.9971L145.95 23.2388H148.947L144.528 37.9948L144.577 38.0924H141.496L141.544 37.9948L137.16 23.2388H140.143Z" fill="white"/>
<path d="M160.964 23.2876V25.79H152.893V29.4215H159.863V31.9447H152.893V35.5902H160.964V38.1064H149.986V23.2598L160.964 23.2876Z" fill="white"/>
<path d="M71.2988 43.0205L74.1915 52.7789L77.0841 43.0205H81.5521V57.8532H78.5688V47.9345L75.704 57.8532H72.665L69.7514 47.9136V57.8532H66.7891V43.0205H71.2988Z" fill="white"/>
<path d="M95.5337 43.0694V45.5856H87.4691V49.2241H94.4394V51.7404H87.4691V55.3858H95.5337V57.9021H84.5625V43.0415L95.5337 43.0694Z" fill="white"/>
<path d="M100.331 43.0205L106.06 52.7231V43.0205H109.05L109.127 57.8532H106.06L100.331 48.0949V57.8532H97.3613V43.0205H100.331Z" fill="white"/>
<path d="M125.215 57.9022H122.029L120.691 54.4519H114.641L113.288 57.9022H110.131L115.846 43.2646H119.548L125.215 57.9022ZM119.722 51.9914L117.673 46.6522L115.582 51.9914H119.722Z" fill="white"/>
</g>
<defs>
<clipPath id="clip0">
<rect width="160.964" height="60" fill="white"/>
</clipPath>
</defs>
</svg>
