<svg width="1440" height="321" viewBox="0 0 1440 321" fill="none" xmlns="http://www.w3.org/2000/svg">
<g opacity="0.44" clip-path="url(#clip0)">
<path d="M-48.95 218.64C-59.57 218.64 -67.8867 215.747 -73.9 209.96C-79.9824 204.241 -84.1697 196.798 -85.9 188.63C-87.8503 180.13 -87.9424 171.309 -86.17 162.77C-84.6249 154.521 -81.0353 146.792 -75.73 140.29C-70.7963 134.099 -63.6857 130.025 -55.85 128.9L-96.38 70H-63.1L-23 128.61H-11.06V70H15.67V218.6L-48.95 218.64ZM-11.08 153.41H-47.53C-53.9034 153.41 -58.1534 156.787 -60.28 163.54C-62.3998 170.13 -62.3998 177.22 -60.28 183.81C-58.1534 190.563 -53.9034 193.94 -47.53 193.94H-11.08V153.41Z" fill="#252626"/>
<path d="M233.55 358.2V417.49H202.83V358.2H48.13V318H202.83V258.74H233.55V358.2Z" fill="#252626"/>
<path d="M233.81 242.68V175H286.12V224.28H316.93V71.22H286.12V145.13H233.81V89.72H203V242.72L233.81 242.68Z" fill="#252626"/>
<path d="M104.46 415.44C117.067 404.393 126.297 389.943 132.15 372.09H97.35C89.27 390.42 79.25 400.52 67.08 402.4C54.91 404.28 44.03 399.46 34.08 387.71C24.13 375.96 19.32 359.05 19.32 337.08C19.32 315.11 24.27 298.19 34.08 286.44C43.89 274.69 54.97 269.88 67.08 271.88C79.19 273.88 89.27 283.98 97.35 302.42H132.15C124.05 278.46 112.09 261.817 96.27 252.49C80.55 243.217 64.1433 240.517 47.05 244.39C29.9567 248.263 15.29 258.133 3.04999 274C-9.12335 289.847 -15.2267 310.873 -15.26 337.08C-15.26 363.387 -7.79332 385.787 7.14001 404.28C22.0733 422.773 40.1033 432.053 61.23 432.12C77.42 432.12 91.86 426.6 104.46 415.44Z" fill="#252626"/>
<path d="M790.43 156.64C779.81 156.64 771.493 153.747 765.48 147.96C759.398 142.241 755.21 134.798 753.48 126.63C751.53 118.13 751.438 109.309 753.21 100.77C754.74 92.5262 758.313 84.7974 763.6 78.29C768.541 72.0928 775.664 68.0182 783.51 66.9L743 8H776.28L816.36 66.57H828.3V8H855.03V156.6L790.43 156.64ZM828.3 91.41H791.85C785.483 91.41 781.233 94.7867 779.1 101.54C776.98 108.13 776.98 115.22 779.1 121.81C781.233 128.563 785.483 131.94 791.85 131.94H828.3V91.41Z" fill="#252626"/>
<path d="M577 165.71V139.901H501.306V102.779H566.605V77.0231H501.306V39.769H577V14H474V166L577 165.71Z" fill="#252626"/>
<path d="M612.31 284.77L582 272.94L556.23 307.69L498.68 285.25L498.86 240.53L468.53 228.71L467.53 418.71L502.73 432.43L612.31 284.77ZM537.76 332.44L498.1 386.23L498.44 317.11L537.76 332.44Z" fill="#252626"/>
<path d="M609.943 246.082L659.365 266L669.652 235.409L620.22 215.501L672 61.5061L638.489 48L586.719 201.995L537.276 182.076L527 212.657L576.432 232.575L609.943 246.082Z" fill="#252626"/>
<path d="M57.68 233.6L117 132.09L118.09 252.38L149.29 262.09L147.29 79.86L148.08 78.92L147.28 78.67L116.92 69.25L116.12 69L116.34 70.25L26.77 224L57.68 233.6Z" fill="#252626"/>
<path d="M161.91 122.57V302.57H194.29V122.57H161.91Z" fill="#252626"/>
<path d="M368.4 452.31V422.88H278.59V380.43H356.06V351H278.59V308.43H368.4V279H246.19V452.65L368.4 452.31Z" fill="#252626"/>
<path d="M321.28 416.31V386.88H411.08V344.43H333.61V315H411.08V272.43H321.28V243H443.48V416.65L321.28 416.31Z" fill="#252626"/>
<path d="M666.12 427.54L693.29 337.35L720.47 427.54H762.77V290.12H734.69V382.12L707.52 290.12H679L651.55 382.12V290.12H623.74V427.54H666.12Z" fill="#252626"/>
<path d="M360.26 199.57L414.5 99.31V199.57H442.75L443.48 46H414.48L360.26 147.31V46H332.19V199.57H360.26Z" fill="#252626"/>
<path d="M767.2 170.8H745.64L736.64 196.31H695.73L686.61 170.8H665L703.62 279.21H728.62L767.2 170.8ZM730.07 214.49L716.2 253.92L702.13 214.49H730.07Z" fill="#252626"/>
<path d="M1040.73 358.2V417.49H1010V358.2H855.32V318H1010V258.74H1040.72V358.2H1040.73Z" fill="#252626"/>
<path d="M1041 242.68V175H1093.31V224.28H1124.13V71.22H1093.3V145.13H1041V89.72H1010.19V242.72L1041 242.68Z" fill="#252626"/>
<path d="M911.65 415.44C924.25 404.393 933.477 389.943 939.33 372.09H904.53C896.45 390.42 886.44 400.52 874.27 402.4C862.1 404.28 851.21 399.46 841.27 387.71C831.33 375.96 826.51 359.05 826.51 337.08C826.51 315.11 831.51 298.19 841.27 286.44C851.03 274.69 862.17 269.88 874.27 271.88C886.37 273.88 896.45 283.98 904.53 302.42H939.33C931.25 278.46 919.293 261.817 903.46 252.49C887.727 243.217 871.317 240.517 854.23 244.39C837.143 248.263 822.477 258.133 810.23 274C798.077 289.847 792 310.873 792 337.08C792 363.387 799.47 385.787 814.41 404.28C829.35 422.773 847.377 432.053 868.49 432.12C884.6 432.12 899 426.6 911.65 415.44Z" fill="#252626"/>
<path d="M1343.11 186.55V167H1286V138.88H1335.31V119.37H1286V91.15H1343.16V71.63H1265.38V186.77L1343.11 186.55Z" fill="#252626"/>
<path d="M1419.49 284.77L1389.15 272.94L1363.39 307.69L1305.83 285.25L1306.01 240.53L1275.68 228.71L1274.68 418.71L1309.87 432.43L1419.49 284.77ZM1344.94 332.44L1305.29 386.23L1305.62 317.11L1344.94 332.44Z" fill="#252626"/>
<path d="M1371 254.4L1416.89 272.82L1426.43 244.53L1380.54 226.12L1428.61 83.71L1397.46 71.22L1349.4 213.63L1303.5 195.21L1294 223.49L1339.89 241.91L1371 254.4Z" fill="#252626"/>
<path d="M857.86 233.6L917.16 132.09L918.25 252.38L949.45 262.09L947.45 79.86L948.23 78.92L947.43 78.67L917.1 69.25L916.3 69L916.52 70.25L827 224L857.86 233.6Z" fill="#252626"/>
<path d="M969.09 -18V162H1001.47V-18H969.09Z" fill="#252626"/>
<path d="M1175.58 416.17V386.74H1085.78V344.29H1163.25V314.86H1085.78V272.29H1175.58V242.86H1053.38V416.51L1175.58 416.17Z" fill="#252626"/>
<path d="M1128.46 416.17V386.74H1218.27V344.29H1140.8V314.86H1218.27V272.29H1128.46V242.86H1250.67V416.51L1128.46 416.17Z" fill="#252626"/>
<path d="M1473.3 427.54L1500.47 337.35L1527.65 427.54H1570V290.12H1541.91V382.12L1514.74 290.12H1486.21L1458.76 382.12V290.12H1430.9V427.54H1473.3Z" fill="#252626"/>
<path d="M1167.45 170.57L1221.68 70.31V170.57H1249.94L1250.67 17H1221.67L1167.45 118.31V17H1139.37V170.57H1167.45Z" fill="#252626"/>
<path d="M1513.59 170.8H1492L1483 196.31H1442.09L1432.97 170.8H1411.41L1450 279.21H1475L1513.59 170.8ZM1476.46 214.49L1462.58 253.92L1448.51 214.49H1476.46Z" fill="#252626"/>
</g>
<defs>
<clipPath id="clip0">
<rect width="2443.61" height="363.44" fill="white" transform="translate(-818)"/>
</clipPath>
</defs>
</svg>
