<svg width="333" height="596" viewBox="0 0 333 596" fill="none" xmlns="http://www.w3.org/2000/svg">
<path d="M-106.469 104.489C-81.5578 81.0926 -55.6757 69.5578 -28.8222 69.8841C-1.95531 69.9003 24.2638 78.1345 46.3161 93.4813C69.6167 109.123 89.2655 129.611 103.919 153.546C118.491 176.255 127.138 202.253 129.071 229.166C131.134 254.587 123.403 279.836 107.461 299.745L332.242 348.662L254.178 421.978L31.1326 372.888L3.12534 399.192L132.156 536.578L69.4554 595.465L-257.912 246.897L-106.469 104.489ZM-51.5974 340.925L33.9024 260.626C48.8366 246.6 51.3669 229.316 41.4934 208.775C31.9469 188.647 16.3294 172.018 -3.16163 161.229C-23.0434 150.087 -40.4514 151.529 -55.3855 165.555L-140.885 245.855L-51.5974 340.925Z" fill="#252626" fill-opacity="0.5"/>
</svg>
