<svg width="215" height="47" viewBox="0 0 215 47" fill="none" xmlns="http://www.w3.org/2000/svg">
<path d="M54.5271 11.0412L50.8819 13.8445C47.6865 10.3852 43.9279 7.47254 39.7602 5.22573C38.9415 4.77384 38.0184 4.5365 37.0794 4.5365C36.1405 4.5365 35.2174 4.77384 34.3987 5.22573C33.2596 5.80803 32.0863 6.48738 30.8598 7.2787C29.089 8.4226 27.405 9.6913 25.8211 11.0748C25.2781 11.5563 25.111 12.1946 25.354 12.6052C25.4603 12.7797 25.6256 12.9118 25.8211 12.9785C31.3947 14.7569 36.5228 17.6737 40.8689 21.5375L36.7415 24.6991C34.9652 23.0317 33.0212 21.5459 30.9395 20.2646C18.1547 12.3663 5.11929 14.9643 2.6246 15.5167C1.32979 15.5167 0.259006 14.7216 0.0425713 13.7549C-0.234617 12.5268 0.866541 10.9927 2.6246 10.8957C6.33547 10.472 10.0748 10.3397 13.807 10.5C15.8879 10.5896 17.8472 10.765 19.6774 11.0002C21.7103 8.65652 24.0114 6.55108 26.5349 4.72556C28.8132 3.08692 30.5446 1.93725 32.6103 1.08247C35.0632 0.0709207 36.4263 0 37.1136 0C38.6332 0.0265448 40.1261 0.396953 41.4765 1.08247C46.454 3.52069 50.8899 6.90565 54.5271 11.0412Z" fill="#1C8B3C"/>
<path d="M27.8409 31.5297L24.0438 34.4524C21.7266 32.412 19.1649 30.6571 16.4154 29.2266C16.2301 29.0957 16.0076 29.0252 15.7794 29.0252C15.5512 29.0252 15.3287 29.0957 15.1434 29.2266C15.0492 29.3311 14.9896 29.4613 14.9725 29.5999C14.7181 31.1527 14.5131 32.8473 14.3878 34.6651C14.2321 36.9703 14.222 39.2828 14.3574 41.5892C14.3558 41.6827 14.3739 41.7755 14.4106 41.8617L10.4198 44.9225C9.1017 38.228 9.53548 31.3141 11.6804 24.8295C12.0033 24.3315 12.4719 23.9411 13.0246 23.7097C13.7795 23.4475 14.6068 23.4714 15.3446 23.7769C19.9582 25.5864 24.194 28.2144 27.8409 31.5297Z" fill="#1C8B3C"/>
<path d="M63.8572 44.7699C63.6719 45.334 63.3138 45.8281 62.832 46.1846C62.5744 46.3731 62.2853 46.5158 61.9777 46.6063L49.7434 46.6586C49.4613 46.6368 49.1865 46.5595 48.9354 46.4313C48.6842 46.303 48.4619 46.1265 48.2816 45.9121C48.0246 45.5905 47.8724 45.2002 47.8449 44.7923C46.3074 37.141 42.4345 30.132 36.7422 24.6993L40.8544 21.5415C43.4052 23.836 45.6015 26.4843 47.3741 29.4025C49.5153 32.9602 51.0072 36.8586 51.7825 40.9215C51.7927 41.1223 51.8469 41.3186 51.9412 41.4971C52.0356 41.6755 52.1679 41.8318 52.3293 41.9555C52.5527 42.1078 52.8168 42.1922 53.0887 42.1981H58.659C58.7892 42.1961 58.9178 42.1708 59.0387 42.1234C59.225 42.0242 59.3849 41.8833 59.5057 41.7121C59.6264 41.541 59.7044 41.3443 59.7336 41.138C60.3727 36.2294 59.9116 31.2427 58.3826 26.5279C56.8536 21.813 54.2937 17.4841 50.8826 13.8447L54.5354 11.0415C60.231 17.4206 62.0764 22.986 62.0764 22.986C65.3685 32.258 64.7154 41.0186 63.8572 44.7699Z" fill="#FFD202"/>
<path d="M36.4525 45.748C36.1383 46.1317 35.6979 46.3957 35.207 46.4945H12.0182C11.6676 46.4276 11.3414 46.2704 11.0727 46.0391C10.7331 45.7469 10.4998 45.3538 10.4082 44.9193L14.399 41.8586C14.433 41.9292 14.4807 41.9926 14.5394 42.0452C14.6558 42.1446 14.807 42.1955 14.9609 42.187H29.6595C29.7407 42.1801 29.8196 42.1571 29.8914 42.1192C29.9632 42.0813 30.0264 42.0295 30.0772 41.9668C30.2708 41.6794 30.024 41.1941 29.9101 41.0336C28.5897 39.1433 27.0935 37.3776 25.4409 35.7594C24.9701 35.2965 24.4992 34.8635 24.0284 34.453L27.8255 31.5303C28.6988 32.3253 29.5646 33.1876 30.4151 34.1431C32.9759 36.9706 35.0962 40.1556 36.7069 43.5943C36.7449 43.6316 37.2119 44.8186 36.4525 45.748Z" fill="#FFD202"/>
<path d="M84.405 35.2342H77.5215L88.0139 5.0767H96.2919L106.737 35.2342H99.8799L92.2704 11.9707H92.0302L84.405 35.2342ZM83.9768 23.3796H100.235V28.3609H83.9768V23.3796Z" fill="#1C8B3C"/>
<path d="M119.914 44.0409C118.124 44.0838 116.34 43.8046 114.65 43.2167C113.329 42.7591 112.137 41.997 111.171 40.993C110.344 40.1225 109.766 39.049 109.495 37.8829L115.339 37.1002C115.538 37.5437 115.826 37.9423 116.185 38.2717C116.63 38.6739 117.152 38.9825 117.721 39.1788C118.472 39.4307 119.262 39.55 120.055 39.5313C121.266 39.5795 122.461 39.2376 123.46 38.5568C124.359 37.9089 124.803 36.8462 124.803 35.3638V31.217H124.536C124.235 31.8801 123.814 32.4827 123.293 32.9949C122.681 33.5906 121.955 34.0578 121.157 34.3685C120.156 34.7411 119.092 34.9172 118.024 34.8869C116.39 34.9078 114.781 34.4982 113.36 33.6999C111.902 32.8535 110.736 31.5884 110.017 30.0714C109.124 28.1215 108.7 25.9919 108.779 23.8513C108.708 21.6433 109.14 19.4479 110.043 17.4289C110.773 15.8536 111.947 14.5215 113.422 13.5932C114.805 12.7435 116.402 12.2996 118.029 12.3128C119.133 12.2774 120.23 12.4956 121.236 12.9504C122.036 13.3305 122.748 13.8726 123.325 14.5417C123.81 15.1097 124.221 15.7368 124.547 16.4078H124.787V12.6187H131.054V35.4571C131.116 37.1465 130.617 38.8094 129.634 40.1896C128.626 41.5043 127.259 42.5045 125.696 43.0716C123.846 43.7482 121.885 44.0769 119.914 44.0409ZM120.05 30.201C120.981 30.2356 121.898 29.9681 122.661 29.4391C123.408 28.887 123.977 28.1303 124.296 27.262C124.701 26.171 124.895 25.0137 124.865 23.8513C124.89 22.6761 124.699 21.5063 124.301 20.3991C123.984 19.5039 123.419 18.7153 122.672 18.1235C121.907 17.5904 120.995 17.3044 120.06 17.3044C119.126 17.3044 118.214 17.5904 117.449 18.1235C116.701 18.7259 116.14 19.5254 115.83 20.4302C115.455 21.5241 115.278 22.6753 115.308 23.8305C115.281 24.9813 115.468 26.1272 115.861 27.2102C116.177 28.0818 116.739 28.8448 117.48 29.408C118.233 29.9288 119.133 30.1992 120.05 30.1803V30.201Z" fill="#1C8B3C"/>
<path d="M136.517 35.2342V12.6187H142.649V16.5633H142.884C143.205 15.3001 143.939 14.1787 144.973 13.3755C145.948 12.6548 147.136 12.274 148.352 12.2921C148.701 12.2928 149.05 12.3135 149.396 12.3543C149.722 12.3854 150.045 12.4391 150.363 12.515V18.0821C149.955 17.9728 149.539 17.8931 149.12 17.8436C148.644 17.7787 148.164 17.7441 147.683 17.7399C146.817 17.726 145.962 17.9311 145.197 18.336C144.483 18.725 143.887 19.298 143.474 19.9948C143.046 20.7391 142.829 21.5846 142.847 22.4414V35.2342H136.517Z" fill="#1C8B3C"/>
<path d="M157.204 9.70036C156.307 9.71572 155.44 9.38279 154.786 8.77252C154.469 8.49007 154.215 8.14446 154.041 7.75819C153.868 7.37192 153.778 6.95367 153.778 6.53067C153.778 6.10767 153.868 5.68941 154.041 5.30314C154.215 4.91688 154.469 4.57126 154.786 4.28881C155.446 3.69072 156.308 3.35913 157.202 3.35913C158.096 3.35913 158.957 3.69072 159.617 4.28881C159.932 4.57299 160.183 4.91917 160.355 5.30521C160.526 5.69124 160.615 6.10863 160.615 6.53067C160.615 6.9527 160.526 7.37009 160.355 7.75612C160.183 8.14216 159.932 8.48834 159.617 8.77252C158.967 9.38487 158.1 9.71825 157.204 9.70036ZM154.013 35.2342V12.6187H160.333V35.2342H154.013Z" fill="#1C8B3C"/>
<path d="M178.053 12.6187V17.3304H163.989V12.6187H178.053ZM167.206 35.2342V11.0014C167.153 9.57953 167.488 8.16991 168.177 6.92202C168.8 5.8665 169.728 5.02126 170.841 4.49615C172.05 3.92801 173.373 3.64252 174.711 3.66161C175.604 3.65684 176.495 3.73143 177.374 3.8845C177.982 3.98597 178.583 4.1192 179.176 4.28363L178.048 8.99541C177.748 8.90477 177.443 8.83037 177.134 8.77252C176.771 8.70393 176.402 8.66922 176.032 8.66885C175.103 8.66885 174.465 8.88656 174.089 9.3116C173.694 9.82213 173.497 10.4571 173.536 11.0999V35.2342H167.206Z" fill="#1C8B3C"/>
<path d="M185.517 9.70036C184.62 9.71572 183.752 9.38279 183.098 8.77252C182.781 8.49007 182.527 8.14446 182.354 7.75819C182.18 7.37192 182.09 6.95367 182.09 6.53067C182.09 6.10767 182.18 5.68941 182.354 5.30314C182.527 4.91688 182.781 4.57126 183.098 4.28881C183.759 3.69072 184.62 3.35913 185.514 3.35913C186.408 3.35913 187.269 3.69072 187.929 4.28881C188.245 4.57213 188.498 4.91803 188.671 5.30419C188.843 5.69034 188.933 6.10815 188.933 6.53067C188.933 6.95318 188.843 7.371 188.671 7.75715C188.498 8.1433 188.245 8.4892 187.929 8.77252C187.28 9.38487 186.413 9.71825 185.517 9.70036ZM182.326 35.2342V12.6187H188.65V35.2342H182.326Z" fill="#1C8B3C"/>
<path d="M204.407 35.68C202.303 35.7364 200.224 35.224 198.391 34.1975C196.738 33.223 195.406 31.7932 194.557 30.0818C193.633 28.1938 193.174 26.1155 193.215 24.0171C193.164 21.9046 193.625 19.8108 194.557 17.911C195.422 16.2017 196.763 14.7749 198.422 13.8005C200.238 12.7796 202.3 12.2689 204.386 12.3232C206.187 12.2834 207.972 12.6503 209.609 13.3962C211.045 14.0654 212.271 15.1101 213.155 16.4182C214.048 17.7785 214.547 19.3566 214.597 20.9796H208.622C208.496 19.9515 208.03 18.9941 207.295 18.2583C206.919 17.9086 206.476 17.6368 205.993 17.4588C205.51 17.2808 204.995 17.2001 204.48 17.2216C203.564 17.2032 202.666 17.4796 201.921 18.0095C201.147 18.5968 200.558 19.3918 200.224 20.3006C199.789 21.4604 199.582 22.6919 199.613 23.929C199.585 25.1751 199.789 26.4156 200.213 27.5886C200.547 28.5046 201.138 29.3067 201.916 29.9004C202.571 30.3488 203.334 30.6176 204.127 30.6795C204.92 30.7414 205.716 30.5942 206.434 30.2529C207.017 29.9529 207.511 29.5083 207.87 28.9622C208.27 28.3471 208.527 27.6511 208.622 26.9251H214.586C214.52 28.5399 214.032 30.1099 213.171 31.4813C212.312 32.8031 211.103 33.8647 209.677 34.55C208.033 35.3292 206.228 35.7162 204.407 35.68Z" fill="#1C8B3C"/>
</svg>
