<svg width="161" height="60" viewBox="0 0 161 60" fill="none" xmlns="http://www.w3.org/2000/svg">
<g clip-path="url(#clip0)">
<path d="M58.5502 19.8792L53.4968 23.6571C61.3383 63.5409 -0.871261 63.6037 6.83785 23.6989L1.77744 19.9419C-5.38102 38.678 10.0651 60.5925 30.1743 59.9861C50.3044 60.5925 65.7714 38.6292 58.5502 19.8792Z" fill="white"/>
<path d="M56.6194 15.5367L51.7891 19.1543C50.0641 15.6968 47.5365 12.7024 44.4177 10.4214C41.2988 8.14047 37.6792 6.63925 33.8615 6.04323V32.7184L30.1743 35.7087L26.487 32.7184V6.04323C22.6589 6.64085 19.0301 8.1486 15.9057 10.4398C12.7812 12.731 10.2524 15.7386 8.53161 19.21L3.70819 15.5995C14.31 -5.17889 46.0037 -5.1998 56.6194 15.5367Z" fill="white"/>
<path d="M74.1148 3.48514H78.4782V5.91776H74.1148V18.3109H71.1524V5.91776H66.7891V3.48514H74.1148Z" fill="white"/>
<path d="M83.1064 3.48514V9.34713H88.1947V3.48514H91.1919V18.3109H88.1947V11.9052H83.1064V18.3109H80.1092V3.48514H83.1064Z" fill="white"/>
<path d="M105.202 3.48514V6.02231H97.1376V9.65382H104.108V12.1771H97.1376V15.8225H105.202V18.3388H94.224V3.48514H105.202Z" fill="white"/>
<path d="M77.4954 24.2286C78.6407 25.1519 79.4991 26.3827 79.9698 27.7765H76.8611C76.1641 26.2779 75.244 25.4484 74.1497 25.2951C73.5972 25.2243 73.0359 25.2968 72.5196 25.5055C72.0033 25.7142 71.5493 26.0522 71.2012 26.487C70.2485 27.664 69.7777 29.1586 69.8839 30.6691C69.787 32.1658 70.2574 33.644 71.2012 34.8095C71.5488 35.2448 72.0028 35.5831 72.5192 35.7919C73.0357 36.0007 73.5972 36.0728 74.1497 36.0014C75.244 35.8411 76.1362 35.0116 76.8611 33.506H79.9698C79.4481 35.2199 78.3045 36.6768 76.7635 37.5906C75.4301 38.3547 73.8625 38.6028 72.3583 38.2876C70.8095 37.9555 69.4218 37.1017 68.4271 35.869C67.2728 34.3894 66.6912 32.5431 66.7891 30.6691C66.7388 28.6481 67.4561 26.683 68.7965 25.1696C69.3828 24.4541 70.1212 23.8783 70.9579 23.484C71.7947 23.0898 72.7088 22.8869 73.6339 22.8903C75.0383 22.8685 76.4056 23.3424 77.4954 24.2286Z" fill="white"/>
<path d="M88.376 23.2389C89.3579 23.1799 90.3268 23.4879 91.0944 24.1032C91.7457 24.6548 92.2046 25.3994 92.4048 26.2291C92.607 27.0745 92.607 27.9557 92.4048 28.8011C92.2408 29.6315 91.8637 30.405 91.3104 31.0456C90.749 31.6739 89.9789 32.0775 89.1427 32.1817L93.5549 38.0437H89.9164L85.553 32.2096H84.2496V38.0437H81.343V23.2389H88.376ZM84.2496 29.7351H88.2226C88.5362 29.7549 88.8469 29.6648 89.1013 29.4804C89.3557 29.2959 89.5379 29.0287 89.6167 28.7245C89.8468 28.0727 89.8468 27.3618 89.6167 26.7101C89.5379 26.4059 89.3557 26.1386 89.1013 25.9541C88.8469 25.7697 88.5362 25.6796 88.2226 25.6994H84.2496V29.7351Z" fill="white"/>
<path d="M105.655 23.2876V25.79H97.5837V29.4215H104.554V31.9447H97.5837V35.5902H105.648V38.1064H94.6771V23.2598L105.655 23.2876Z" fill="white"/>
<path d="M121.854 38.1204H118.662L117.323 34.6701H111.273L109.921 38.1204H106.736L112.444 23.4828H116.145L121.854 38.1204ZM116.362 32.2096L114.312 26.8704L112.221 32.2096H116.362Z" fill="white"/>
<path d="M127.172 23.2389H131.536V25.6994H127.172V38.0925H124.21V25.6994H119.847V23.2389H127.172Z" fill="white"/>
<path d="M133.167 38.0925V23.2389H136.087V38.0925H133.167Z" fill="white"/>
<path d="M140.144 23.2389L143.058 32.9972L145.95 23.2389H148.948L144.528 37.9949L144.577 38.0925H141.496L141.545 37.9949L137.161 23.2389H140.144Z" fill="white"/>
<path d="M160.964 23.2876V25.79H152.893V29.4215H159.863V31.9447H152.893V35.5902H160.964V38.1064H149.986V23.2598L160.964 23.2876Z" fill="white"/>
<path d="M71.2988 43.0204L74.1915 52.7788L77.0841 43.0204H81.5521V57.8532H78.5688V47.9345L75.704 57.8532H72.665L69.7514 47.9136V57.8532H66.7891V43.0204H71.2988Z" fill="white"/>
<path d="M95.5344 43.0693V45.5855H87.4698V49.224H94.4401V51.7403H87.4698V55.3857H95.5344V57.902H84.5632V43.0414L95.5344 43.0693Z" fill="white"/>
<path d="M100.33 43.0204L106.06 52.7231V43.0204H109.05L109.126 57.8532H106.06L100.33 48.0948V57.8532H97.3606V43.0204H100.33Z" fill="white"/>
<path d="M125.214 57.9019H122.028L120.69 54.4517H114.64L113.288 57.9019H110.13L115.846 43.2644H119.547L125.214 57.9019ZM119.721 51.9912L117.672 46.652L115.581 51.9912H119.721Z" fill="white"/>
</g>
<defs>
<clipPath id="clip0">
<rect width="160.964" height="60" fill="white"/>
</clipPath>
</defs>
</svg>
