<svg width="200" height="20" viewBox="0 0 200 20" fill="none" xmlns="http://www.w3.org/2000/svg">
<path d="M5.04 19V5.272H0.504V1.96H13.128V5.272H8.544V19H5.04ZM18.3017 19H15.0137V0.999999H18.3017V8.368C19.0377 7.28 20.1817 6.736 21.7337 6.736C23.1737 6.736 24.3017 7.216 25.1177 8.176C25.9497 9.12 26.3657 10.384 26.3657 11.968V19H23.0777V12.52C23.0777 11.64 22.8937 10.96 22.5257 10.48C22.1577 9.984 21.6377 9.736 20.9657 9.736C20.1657 9.736 19.5177 10.024 19.0217 10.6C18.5417 11.176 18.3017 12.024 18.3017 13.144V19ZM34.9729 19.264C33.1489 19.264 31.6289 18.688 30.4129 17.536C29.2129 16.384 28.6129 14.872 28.6129 13C28.6129 11.208 29.2129 9.72 30.4129 8.536C31.6129 7.336 33.1169 6.736 34.9249 6.736C36.5889 6.736 37.9889 7.256 39.1249 8.296C40.2609 9.32 40.8289 10.768 40.8289 12.64C40.8289 13.168 40.8129 13.544 40.7809 13.768H31.8049C31.9009 14.552 32.2449 15.168 32.8369 15.616C33.4449 16.048 34.1649 16.264 34.9969 16.264C36.4049 16.264 37.4369 15.76 38.0929 14.752L40.5409 16.576C39.3089 18.368 37.4529 19.264 34.9729 19.264ZM31.9249 11.536H37.5409C37.3969 10.848 37.0689 10.328 36.5569 9.976C36.0609 9.624 35.4849 9.448 34.8289 9.448C34.1569 9.448 33.5409 9.624 32.9809 9.976C32.4209 10.328 32.0689 10.848 31.9249 11.536ZM48.8479 19.264C47.0559 19.264 45.5439 18.672 44.3119 17.488C43.0959 16.288 42.4879 14.792 42.4879 13C42.4879 11.208 43.0959 9.72 44.3119 8.536C45.5439 7.336 47.0559 6.736 48.8479 6.736C50.0799 6.736 51.1999 7.056 52.2079 7.696C53.2319 8.32 54.0079 9.152 54.5359 10.192L51.6799 11.728C51.4239 11.152 51.0479 10.688 50.5519 10.336C50.0719 9.984 49.5039 9.808 48.8479 9.808C47.9839 9.808 47.2559 10.112 46.6639 10.72C46.0879 11.328 45.7999 12.088 45.7999 13C45.7999 13.912 46.0879 14.672 46.6639 15.28C47.2559 15.888 47.9839 16.192 48.8479 16.192C49.5039 16.192 50.0719 16.016 50.5519 15.664C51.0479 15.312 51.4239 14.848 51.6799 14.272L54.5359 15.808C54.0079 16.848 53.2319 17.688 52.2079 18.328C51.1999 18.952 50.0799 19.264 48.8479 19.264ZM56.6387 19V7H59.9267V8.92C60.1347 8.328 60.5107 7.84 61.0547 7.456C61.6147 7.056 62.2307 6.856 62.9027 6.856C63.3187 6.856 63.6867 6.904 64.0067 7V10.336C63.4787 10.16 62.9827 10.072 62.5187 10.072C61.7347 10.072 61.1027 10.36 60.6227 10.936C60.1587 11.496 59.9267 12.272 59.9267 13.264V19H56.6387ZM71.2776 19.264C69.4536 19.264 67.9336 18.688 66.7176 17.536C65.5176 16.384 64.9176 14.872 64.9176 13C64.9176 11.208 65.5176 9.72 66.7176 8.536C67.9176 7.336 69.4216 6.736 71.2296 6.736C72.8936 6.736 74.2936 7.256 75.4296 8.296C76.5656 9.32 77.1336 10.768 77.1336 12.64C77.1336 13.168 77.1176 13.544 77.0856 13.768H68.1096C68.2056 14.552 68.5496 15.168 69.1416 15.616C69.7496 16.048 70.4696 16.264 71.3016 16.264C72.7096 16.264 73.7416 15.76 74.3976 14.752L76.8456 16.576C75.6136 18.368 73.7576 19.264 71.2776 19.264ZM68.2296 11.536H73.8456C73.7016 10.848 73.3736 10.328 72.8616 9.976C72.3656 9.624 71.7896 9.448 71.1336 9.448C70.4616 9.448 69.8456 9.624 69.2856 9.976C68.7256 10.328 68.3736 10.848 68.2296 11.536ZM84.4326 19.264C82.8486 19.264 81.5126 18.648 80.4246 17.416C79.3366 16.184 78.7926 14.712 78.7926 13C78.7926 11.288 79.3366 9.816 80.4246 8.584C81.5126 7.352 82.8486 6.736 84.4326 6.736C85.2006 6.736 85.8886 6.896 86.4966 7.216C87.1046 7.536 87.5686 7.912 87.8886 8.344V7H91.1766V19H87.8886V17.656C87.5686 18.088 87.1046 18.464 86.4966 18.784C85.8886 19.104 85.2006 19.264 84.4326 19.264ZM82.9206 15.352C83.4806 15.96 84.2166 16.264 85.1286 16.264C86.0406 16.264 86.7686 15.96 87.3126 15.352C87.8726 14.744 88.1526 13.96 88.1526 13C88.1526 12.04 87.8726 11.256 87.3126 10.648C86.7686 10.04 86.0406 9.736 85.1286 9.736C84.2166 9.736 83.4806 10.04 82.9206 10.648C82.3766 11.256 82.1046 12.04 82.1046 13C82.1046 13.96 82.3766 14.744 82.9206 15.352ZM100.181 19.144C98.8371 19.144 97.7331 18.776 96.8691 18.04C96.0211 17.288 95.5971 16.208 95.5971 14.8V9.88H93.1731V7H95.5971V3.664H98.8851V7H102.269V9.88H98.8851V14.152C98.8851 14.888 99.0451 15.416 99.3651 15.736C99.6851 16.04 100.205 16.192 100.925 16.192C101.437 16.192 101.885 16.12 102.269 15.976V18.88C101.693 19.056 100.997 19.144 100.181 19.144ZM106.247 5.032C105.687 5.032 105.199 4.832 104.783 4.432C104.367 4.016 104.159 3.52 104.159 2.944C104.159 2.368 104.367 1.88 104.783 1.48C105.199 1.064 105.687 0.855999 106.247 0.855999C106.839 0.855999 107.335 1.064 107.735 1.48C108.151 1.88 108.359 2.368 108.359 2.944C108.359 3.52 108.151 4.016 107.735 4.432C107.335 4.832 106.839 5.032 106.247 5.032ZM104.615 19V7H107.903V19H104.615ZM114.805 19L109.501 7H113.125L116.293 14.68L119.461 7H123.133L117.805 19H114.805ZM129.965 19.264C128.141 19.264 126.621 18.688 125.405 17.536C124.205 16.384 123.605 14.872 123.605 13C123.605 11.208 124.205 9.72 125.405 8.536C126.605 7.336 128.109 6.736 129.917 6.736C131.581 6.736 132.981 7.256 134.117 8.296C135.253 9.32 135.821 10.768 135.821 12.64C135.821 13.168 135.805 13.544 135.773 13.768H126.797C126.893 14.552 127.237 15.168 127.829 15.616C128.437 16.048 129.157 16.264 129.989 16.264C131.397 16.264 132.429 15.76 133.085 14.752L135.533 16.576C134.301 18.368 132.445 19.264 129.965 19.264ZM126.917 11.536H132.533C132.389 10.848 132.061 10.328 131.549 9.976C131.053 9.624 130.477 9.448 129.821 9.448C129.149 9.448 128.533 9.624 127.973 9.976C127.413 10.328 127.061 10.848 126.917 11.536ZM153.368 19V12.592C153.368 10.688 152.744 9.736 151.496 9.736C150.776 9.736 150.2 10.008 149.768 10.552C149.352 11.096 149.128 11.904 149.096 12.976V19H145.808V12.592C145.808 10.688 145.184 9.736 143.936 9.736C143.2 9.736 142.616 10.024 142.184 10.6C141.752 11.176 141.536 12.024 141.536 13.144V19H138.248V7H141.536V8.368C142.288 7.28 143.352 6.736 144.728 6.736C146.408 6.736 147.648 7.472 148.448 8.944C148.8 8.256 149.328 7.72 150.032 7.336C150.736 6.936 151.448 6.736 152.168 6.736C153.592 6.736 154.696 7.208 155.48 8.152C156.264 9.096 156.656 10.392 156.656 12.04V19H153.368ZM165.262 19.264C163.438 19.264 161.918 18.688 160.702 17.536C159.502 16.384 158.902 14.872 158.902 13C158.902 11.208 159.502 9.72 160.702 8.536C161.902 7.336 163.406 6.736 165.214 6.736C166.878 6.736 168.278 7.256 169.414 8.296C170.55 9.32 171.118 10.768 171.118 12.64C171.118 13.168 171.102 13.544 171.07 13.768H162.094C162.19 14.552 162.534 15.168 163.126 15.616C163.734 16.048 164.454 16.264 165.286 16.264C166.694 16.264 167.726 15.76 168.382 14.752L170.83 16.576C169.598 18.368 167.742 19.264 165.262 19.264ZM162.214 11.536H167.83C167.686 10.848 167.358 10.328 166.846 9.976C166.35 9.624 165.774 9.448 165.118 9.448C164.446 9.448 163.83 9.624 163.27 9.976C162.71 10.328 162.358 10.848 162.214 11.536ZM173.545 19V7H176.833V8.368C177.569 7.28 178.713 6.736 180.265 6.736C181.705 6.736 182.833 7.216 183.649 8.176C184.481 9.12 184.897 10.384 184.897 11.968V19H181.609V12.52C181.609 11.64 181.425 10.96 181.057 10.48C180.689 9.984 180.169 9.736 179.497 9.736C178.697 9.736 178.049 10.024 177.553 10.6C177.073 11.176 176.833 12.024 176.833 13.144V19H173.545ZM192.784 19.264C191.2 19.264 189.864 18.648 188.776 17.416C187.688 16.184 187.144 14.712 187.144 13C187.144 11.288 187.688 9.816 188.776 8.584C189.864 7.352 191.2 6.736 192.784 6.736C193.552 6.736 194.24 6.896 194.848 7.216C195.456 7.536 195.92 7.912 196.24 8.344V7H199.528V19H196.24V17.656C195.92 18.088 195.456 18.464 194.848 18.784C194.24 19.104 193.552 19.264 192.784 19.264ZM191.272 15.352C191.832 15.96 192.568 16.264 193.48 16.264C194.392 16.264 195.12 15.96 195.664 15.352C196.224 14.744 196.504 13.96 196.504 13C196.504 12.04 196.224 11.256 195.664 10.648C195.12 10.04 194.392 9.736 193.48 9.736C192.568 9.736 191.832 10.04 191.272 10.648C190.728 11.256 190.456 12.04 190.456 13C190.456 13.96 190.728 14.744 191.272 15.352Z" fill="white"/>
</svg>
